<?xml version="1.0" encoding="iso-8859-1"?>
<!-- Uploaded to: SVG Repo, www.svgrepo.com, Generator: SVG Repo Mixer Tools -->
<!DOCTYPE svg PUBLIC "-//W3C//DTD SVG 1.1//EN" "http://www.w3.org/Graphics/SVG/1.1/DTD/svg11.dtd">
<svg fill="#000000" height="800px" width="800px" version="1.1" id="Capa_1" xmlns="http://www.w3.org/2000/svg" xmlns:xlink="http://www.w3.org/1999/xlink" 
	 viewBox="0 0 179.171 179.171" xml:space="preserve">
<g>
	<path d="M111.591,96.316l8.465-68.104c0.156-1.26,0.235-2.543,0.235-3.814c0-8.883-3.845-17.326-10.55-23.164
		c-1.423-1.239-3.42-1.571-5.168-0.861c-1.747,0.711-2.945,2.345-3.099,4.225c-0.501,6.134-5.724,10.939-11.89,10.939
		C83.42,15.536,78.2,10.73,77.7,4.594c-0.153-1.88-1.352-3.514-3.099-4.225c-1.746-0.712-3.745-0.378-5.168,0.859
		c-6.707,5.839-10.554,14.283-10.554,23.168c0,1.271,0.079,2.555,0.235,3.815l8.534,68.737c1.009,8.132,6.4,14.777,13.619,17.719
		c-0.775,0.542-1.285,1.439-1.285,2.456c0,1.657,1.343,3,3,3h1.603v22.691c-9.879,2.196-19.543,11.218-19.543,31.355
		c0,2.761,2.238,5,5,5h39.086c2.762,0,5-2.239,5-5c0-20.136-9.664-29.159-19.543-31.355v-22.691h1.603c1.657,0,3-1.343,3-3
		c0-1.004-0.498-1.888-1.255-2.432C105.368,111.693,110.788,104.786,111.591,96.316z M103.864,169.171H75.307
		c1.19-10.686,6.34-16.909,14.278-16.909S102.673,158.485,103.864,169.171z M101.64,95.323c-0.57,6.264-5.753,10.987-12.055,10.987
		c-6.099,0-11.263-4.554-12.013-10.593l-8.534-68.735c-0.105-0.854-0.159-1.723-0.159-2.585c0-3.217,0.748-6.349,2.142-9.169
		c3.913,6.195,10.836,10.308,18.564,10.308c7.729,0,14.652-4.11,18.566-10.305c1.393,2.819,2.14,5.95,2.14,9.166
		c0,0.862-0.054,1.731-0.159,2.583l-8.475,68.18C101.651,95.214,101.645,95.268,101.64,95.323z"/>
	<path d="M87.465,94.666c-0.561,0.56-0.88,1.33-0.88,2.12s0.319,1.57,0.88,2.13c0.56,0.55,1.33,0.87,2.12,0.87s1.569-0.32,2.12-0.87
		c0.56-0.56,0.88-1.34,0.88-2.13s-0.32-1.56-0.88-2.12C90.595,93.555,88.586,93.546,87.465,94.666z"/>
</g>
</svg>